<svg width="134" height="100" viewBox="0 0 134 100" fill="#38d9cf" xmlns="http://www.w3.org/2000/svg">
<path d="M66.5 0C48.5002 0 37.2498 11.1113 32.75 33.3333C39.5 22.222 47.3748 18.0553 56.375 20.8333C61.5097 22.418 65.1801 27.0176 69.2427 32.1081C75.8609 40.4017 83.52 50 100.25 50C118.25 50 129.5 38.8887 134 16.6667C127.25 27.778 119.375 31.9447 110.375 29.1667C105.24 27.582 101.57 22.9824 97.5073 17.8919C90.8891 9.59831 83.23 0 66.5 0ZM32.75 50C14.7502 50 3.49982 61.1113 -1 83.3333C5.75 72.222 13.6248 68.0553 22.625 70.8333C27.7597 72.418 31.4301 77.0176 35.4927 82.1081C42.1109 90.4017 49.77 100 66.5 100C84.4998 100 95.7502 88.8887 100.25 66.6667C93.5 77.778 85.6252 81.9447 76.625 79.1667C71.4903 77.582 67.8199 72.9824 63.7573 67.8919C57.1391 59.5983 49.48 50 32.75 50Z" fill="url(#paint0_linear_1_3)"/>
<defs>
<linearGradient id="paint0_linear_1_3" x1="-961.077" y1="4915.2" x2="-354.301" y2="10430.3" gradientUnits="userSpaceOnUse">
<stop stop-color="#38d9cf"/>
<stop offset="1" stop-color="#38d9cf"/>
</linearGradient>
</defs>
</svg>
